<?xml version="1.0" encoding="utf-8"?>
<!-- Generator: Adobe Illustrator 18.1.1, SVG Export Plug-In . SVG Version: 6.00 Build 0)  -->
<svg version="1.1" id="Layer_1" xmlns="http://www.w3.org/2000/svg" xmlns:xlink="http://www.w3.org/1999/xlink" x="0px" y="0px"
	 viewBox="0 0 200 200" enable-background="new 0 0 200 200" xml:space="preserve">
<g id="Layer_3" display="none">
	<g id="PAnnPo.tif" display="inline">
		
			<image overflow="visible" enable-background="new    " width="686" height="178" id="Layer_0_1_" xlink:href="DC5A58C7FBE03F5F.png"  transform="matrix(0.2773 0 0 0.2765 2.6711 75.4861)">
		</image>
	</g>
</g>
<g id="Shield">
	<g>
		<polygon fill="#E11E16" points="26.8,124.2 6.9,113.3 3.5,84.3 25.2,76.7 25.2,78 26.8,78 		"/>
	</g>
	<g>
		<path fill="none" stroke="#AF1209" stroke-width="3" stroke-miterlimit="10" d="M28.8,78.5"/>
	</g>
	<g>
		<path fill="#AF1209" d="M25.1,123.6V77.8h2.8v-0.5l19.7,6.8L44.1,113L25.1,123.6z M36.7,107.3l-2.5,2.3l2.4-1.5L36.7,107.3z"/>
	</g>
</g>
<g id="Text">
	<g>
		<path fill="none" stroke="#231F20" stroke-miterlimit="10" d="M52,110.4V90.6h2.6l12.1,15.9V90.6h2.4v19.8h-2.6L54.4,94.3v16.1H52
			z"/>
		<path fill="none" stroke="#231F20" stroke-miterlimit="10" d="M88.8,109.6c-1.6,0.6-3.3,0.9-5.2,0.9c-7.2,0-10.8-3.4-10.8-10.3
			c0-6.5,3.5-9.8,10.4-9.8c2,0,3.8,0.3,5.5,0.8v2.2c-1.7-0.6-3.5-1-5.3-1c-5.4,0-8.1,2.6-8.1,7.7c0,5.5,2.7,8.2,8,8.2
			c0.9,0,1.8-0.1,2.8-0.3v-6.7h2.6V109.6z"/>
		<path fill="none" stroke="#231F20" stroke-miterlimit="10" d="M92.9,102.8V90.6h2.6v12.1c0,3.8,1.9,5.7,5.7,5.7
			c3.8,0,5.7-1.9,5.7-5.7V90.6h2.6v12.1c0,5.2-2.7,7.8-8.2,7.8S92.9,108,92.9,102.8z"/>
		<path fill="none" stroke="#231F20" stroke-miterlimit="10" d="M116.5,90.6v17.7h10.4v2.1h-12.9V90.6H116.5z"/>
		<path fill="none" stroke="#231F20" stroke-miterlimit="10" d="M130.5,110.4h-2.7l8.4-19.8h2.8l8.5,19.8h-2.8l-2.6-6.2h-6.5
			l0.7-2.1h5l-3.7-9L130.5,110.4z"/>
		<path fill="none" stroke="#231F20" stroke-miterlimit="10" d="M150.3,110.4V90.6h8.5c3.8,0,5.7,1.6,5.7,4.8c0,2.6-1.8,4.5-5.5,5.7
			l6.8,9.3h-3.4l-6.3-8.9v-1.7c3.8-0.6,5.7-2,5.7-4.4c0-1.8-1.1-2.7-3.2-2.7h-5.7v17.7L150.3,110.4L150.3,110.4z"/>
		<path fill="none" stroke="#AF1209" stroke-miterlimit="10" d="M175.6,90.6v14.1c0,3.8-2.2,5.7-6.7,5.7v-2.1c2.8,0,4.2-1.2,4.2-3.6
			V90.6H175.6z"/>
		<path fill="none" stroke="#AF1209" stroke-miterlimit="10" d="M180.2,109.7v-2.4c2.1,0.7,4.3,1.1,6.7,1.1c3.4,0,5.1-1.2,5.1-3.7
			c0-2.1-1.3-3.2-3.8-3.2h-2.6c-4.1,0-6.2-1.8-6.2-5.4c0-3.8,2.7-5.7,8-5.7c2.3,0,4.4,0.3,6.4,0.8v2.4c-2-0.7-4.1-1.1-6.4-1.1
			c-3.6,0-5.4,1.2-5.4,3.6c0,2.1,1.2,3.2,3.6,3.2h2.6c4.2,0,6.3,1.8,6.3,5.4c0,3.9-2.6,5.8-7.7,5.8
			C184.5,110.5,182.3,110.3,180.2,109.7z"/>
	</g>
</g>
<g id="Shield_Outer">
	<path fill="#FAFAFA" stroke="#BBBBBB" stroke-miterlimit="10" d="M25.3,75.4L2.6,83.5l3.6,30.3l19.2,10.8l19.9-11l3.6-30.2
		L25.3,75.4z M42.9,112.2l-17.6,9.7L8,112.4L4.8,85.3L25.3,78l21,7.1L42.9,112.2z"/>
	<path fill="#FAFAFA" stroke="#BBBBBB" stroke-linecap="round" stroke-miterlimit="10" d="M25.3,79.6l-14.3,31.7h5.3l2.9-7.3
		l6.2,0.1l6.7,0l3.2,7.2l5.1,0.1L25.3,79.6z M25.3,99.8h-4.2l4.2-9.9l4.8,9.9H25.3z"/>
	<line display="none" fill="none" stroke="#000000" stroke-miterlimit="10" x1="25.3" y1="78" x2="25.3" y2="121.9"/>
</g>
</svg>
