<?xml version="1.0" encoding="utf-8"?>
<!-- Generator: Adobe Illustrator 19.2.1, SVG Export Plug-In . SVG Version: 6.00 Build 0)  -->
<svg version="1.1" id="Layer_1" xmlns="http://www.w3.org/2000/svg" xmlns:xlink="http://www.w3.org/1999/xlink" x="0px" y="0px"
	 viewBox="0 0 773.7 200" style="enable-background:new 0 0 773.7 200;" xml:space="preserve">
<style type="text/css">
	.st0{display:none;}
	.st1{display:inline;}
	.st2{fill:none;stroke:#E11E16;stroke-width:10;stroke-miterlimit:10;}
	.st3{fill:none;stroke:#E62F18;stroke-width:10;stroke-miterlimit:10;}
	.st4{fill:none;stroke:#AF1209;stroke-width:10;stroke-miterlimit:10;}
	.st5{fill:none;stroke:#231F20;stroke-miterlimit:10;}
	.st6{fill:none;stroke:#AF1209;stroke-miterlimit:10;}
	.st7{fill:#FAFAFA;stroke:#BBBBBB;stroke-miterlimit:10;}
	.st8{fill:#FAFAFA;stroke:#BBBBBB;stroke-linecap:round;stroke-miterlimit:10;}
	.st9{display:none;fill:none;stroke:#000000;stroke-miterlimit:10;}
	.st10{fill:#E62F18;}
</style>
<g id="Layer_3" class="st0">
	<g id="PAnnPo.tif" class="st1">
		
			<image style="overflow:visible;enable-background:new    ;" width="686" height="178" id="Layer_0_1_" xlink:href="AD8988A80BDA643C.png"  transform="matrix(1.0729 0 0 1.0698 10.3333 5.1678)">
		</image>
	</g>
</g>
<g id="Shield">
	<path class="st2" d="M23,184.8"/>
	<polyline class="st3" points="20.4,41.2 24,86.9 28.7,149.2 28.7,35.5 36.7,34.2 36.7,153.2 45,157.2 45,29.9 52.4,27.5 
		52.4,162.5 62.4,168.2 62.4,25.9 69.4,22.9 69.4,171.5 77.4,174.9 77.4,19.5 85.4,17.2 85.4,181.2 93.7,185.9 93.7,181.5 
		93.7,14.5 	"/>
	<polyline class="st4" points="103,14.3 103,181.3 103,185.7 111.3,181 111.3,17 119.3,19.3 119.3,174.7 127.3,171.3 127.3,22.7 
		134.3,25.7 134.3,168 144.3,162.3 144.3,27.3 151.7,29.7 151.7,157 160,153 160,34 168,35.3 168,149 172.7,86.7 176.3,41 	"/>
</g>
<g id="Text">
	<g>
		<path class="st5" d="M201.1,140.3V63.6h9.9l46.9,61.7V63.6h9.4v76.6h-9.9L210.5,78v62.3H201.1z"/>
		<path class="st5" d="M343.4,137.3c-6.2,2.4-12.8,3.5-20,3.5c-27.8,0-41.6-13.3-41.6-39.9c0-25.2,13.4-37.8,40.2-37.8
			c7.7,0,14.8,1.1,21.4,3.2v8.6c-6.6-2.5-13.4-3.8-20.4-3.8c-20.9,0-31.3,9.9-31.3,29.7c0,21.3,10.3,31.9,30.9,31.9
			c3.3,0,6.9-0.4,10.9-1.3v-26h9.9V137.3z"/>
		<path class="st5" d="M359.2,110.7v-47h9.9v47c0,14.7,7.3,22.1,22,22.1c14.6,0,22-7.4,22-22.1v-47h9.9v47
			c0,20.1-10.6,30.1-31.9,30.1C369.8,140.8,359.2,130.8,359.2,110.7z"/>
		<path class="st5" d="M450.5,63.6v68.6h40.1v8h-50V63.6H450.5z"/>
		<path class="st5" d="M504.9,140.3h-10.3l32.5-76.6h11l32.7,76.6h-11l-9.9-24.1h-25.3l2.7-8h19.3l-14.3-34.7L504.9,140.3z"/>
		<path class="st5" d="M581.3,140.3V63.6H614c14.6,0,21.9,6.1,21.9,18.4c0,10-7.1,17.3-21.4,22.1l26.3,36.1h-13.1l-24.4-34.5v-6.5
			c14.6-2.3,22-7.9,22-16.9c0-7.1-4.1-10.6-12.2-10.6h-21.9v68.4h-9.9V140.3z"/>
		<path class="st6" d="M679.4,63.6v54.5c0,14.7-8.7,22.1-26,22.1v-8c10.7,0,16.1-4.7,16.1-14V63.6H679.4z"/>
		<path class="st6" d="M697.1,137.6v-9.1c8,2.9,16.7,4.3,26,4.3c13.2,0,19.8-4.8,19.8-14.5c0-8.2-4.9-12.3-14.6-12.3h-9.9
			c-16,0-24.1-7-24.1-20.9c0-14.6,10.3-22,30.8-22c8.9,0,17.2,1.1,24.9,3.2v9.1c-7.7-2.9-16-4.3-24.9-4.3
			c-13.9,0-20.9,4.6-20.9,13.9c0,8.2,4.7,12.3,14.1,12.3h9.9c16.3,0,24.5,7,24.5,20.9c0,15-9.9,22.5-29.7,22.5
			C713.8,140.8,705.2,139.7,697.1,137.6z"/>
	</g>
</g>
<g id="Shield_Outer">
	<path class="st7" d="M97.9,4.7L10.2,36.3l14.1,117.2l74.2,41.6l77-42.4l13.8-117L97.9,4.7z M165.8,147.2l-68,37.6l-66.9-37L18.7,43
		l79.2-28.2L179,42.3L165.8,147.2z"/>
	<path class="st8" d="M97.7,21.2L42.3,144h20.5L74,115.9l23.8,0.2l25.8,0.1l12.2,27.8l19.7,0.3L97.7,21.2z M97.7,99.2H81.5
		l16.3-38.4l18.6,38.4H97.7z"/>
	<line class="st9" x1="97.8" y1="14.8" x2="97.7" y2="184.7"/>
</g>
<path class="st10" d="M87,178.8"/>
</svg>
