<?xml version="1.0" encoding="utf-8"?>
<!-- Generator: Adobe Illustrator 18.1.1, SVG Export Plug-In . SVG Version: 6.00 Build 0)  -->
<svg version="1.1" xmlns="http://www.w3.org/2000/svg" xmlns:xlink="http://www.w3.org/1999/xlink" x="0px" y="0px"
	 viewBox="32 6.5 137 187" style="enable-background:new 32 6.5 137 187;" xml:space="preserve">
<style type="text/css">
	.st0{fill:none;stroke:#0075B7;stroke-width:10;stroke-miterlimit:10;}
	.st1{fill:none;stroke:#00AADD;stroke-width:3;stroke-miterlimit:10;}
	.st2{fill:none;stroke:#00AADD;stroke-width:5;stroke-miterlimit:10;}
	.st3{fill:#FFFFFF;stroke:#000000;stroke-miterlimit:10;}
	.st4{fill:none;stroke:#231F20;stroke-miterlimit:10;}
</style>
<g id="Layer_1">
	<g id="Layer_1_1_">
		<polyline id="Iner" class="st0" points="44.8,58.8 152.5,58.8 152.5,68.2 47,68.2 47,78.2 151,78.2 151,87 49,87 49,95.8 
			150.5,95.8 150.5,104.8 50.8,104.8 50.8,113.2 147.8,113.2 147.8,122.5 50.5,122.5 50.5,131 145.8,131 145.8,138.5 54,138.5 
			54,145.8 145,145.8 145,153.8 55.5,153.8 55.5,161.5 144.2,161.5 144.2,170 55.2,170 79,172.8 123.5,172.8 122.5,177.5 83,177.5 
					"/>
	</g>
	<g id="Layer_3">
		<polygon class="st1" points="101.6,177.6 101.6,56.3 151.1,56.3 141.9,166.1 		"/>
		<polyline class="st2" points="102.1,174.4 141,163.5 102.1,169.4 142,159.3 101.9,164.6 142.2,155.4 102,159.5 142.9,151.1 
			101.7,155.1 143,146.6 101.7,150.3 143.6,142.3 101.9,145.4 144,137.9 101.9,140.6 144.4,132.9 101.7,135.4 144.6,128 
			101.5,130.4 145.4,123.3 101.7,125.1 145.7,118.3 101.6,120 146,113.6 101.7,115.1 146.1,108.5 101.6,110.8 146.7,103.5 
			101.6,105.5 147.1,99 101.9,100.3 147.5,94 101.7,95 147.7,89.4 101.2,90 148.4,84.5 101.6,85 148.6,79.4 101.5,79.9 149.5,74.4 
			101.7,75 149.4,70.1 101.6,70.6 149.7,65.9 101.7,66.9 150,61.3 101.6,62.8 149.5,58 101.2,58.4 		"/>
	</g>
	<path id="Outer" class="st3" d="M35,44.3l11.5,132l53.4,15.1l53.1-15.1l11.5-131.5L35,44.3z M142.6,168.3L100,179.7l-44.7-11.5
		L46.9,55.3l52.7-0.5l0,0h0.1h0.1l0,0l52.7,0.7L142.6,168.3z"/>
	<polygon id="_x33_" class="st3" points="59.3,69.7 140.7,69.7 133.5,152.5 100.2,162 66.7,152.2 64.5,127 80.7,127 81.9,139.6 
		100,144.8 118.2,139.8 120,119 82.3,119 80.5,102.3 121.7,102.3 122.9,86.2 60.5,86.2 	"/>
</g>
<g id="Layer_6">
	<polygon class="st4" points="85.2,9.3 61.2,9.3 61.2,33.5 84.9,33.5 84.9,27.6 68.6,27.6 68.6,16.9 85.1,16.9 	"/>
	<polygon class="st4" points="87.7,9.3 111.7,9.3 111.7,16.5 94.2,16.5 94.2,19.6 111.9,19.6 111.9,33.6 87.8,33.6 87.8,27.9 
		104.1,27.9 104.1,24.8 87.4,24.8 	"/>
	<polygon class="st4" points="114,9.3 138,9.3 138,16.5 120.6,16.5 120.6,19.6 138.2,19.6 138.2,33.6 114.2,33.6 114.2,27.9 
		130.4,27.9 130.4,24.8 113.7,24.8 	"/>
</g>
</svg>
