
<svg style="width: 300px; height: 300px; " version="1.1" id="Layer_1" xmlns="http://www.w3.org/2000/svg" xmlns:xlink="http://www.w3.org/1999/xlink" x="0px" y="0px" viewBox="0 0 300 300" enable-background="new 0 0 300 300" xml:space="preserve">


  <path id="house" style="fill:none; stroke:#333333; stroke-width:2; stroke-linecap:round;stroke-linejoin:miter;stroke-miterlimit:4;stroke-opacity:1; stroke-dasharray:800; stroke-dashoffset:0" data-0="stroke-dashoffset:800;" data-end="stroke-dashoffset:0;" d="M244.6,99.3l-79.2-79.2c-4.7-4.7-12.3-4.7-17,0L69.2,99.3 c-3.3,3.3-4.3,8.2-2.8,12.4v154.4c0,6.6,5.4,12,12,12h156.3c6.6,0,12-5.4,12-12V113.5C249.1,109,248.4,103.2,244.6,99.3z"/>
  <path fill="#FFFFFF" stroke="#000000" stroke-miterlimit="10" d="M111.7,188.5h-10.6c-6.6,0-12-5.4-12-12v-28.2c0-6.6,5.4-12,12-12 h10.6c6.6,0,12,5.4,12,12v28.2C123.7,183.1,118.3,188.5,111.7,188.5z"/>
  <path fill="#FFFFFF" stroke="#000000" stroke-miterlimit="10" d="M207.8,188.5h-10.6c-6.6,0-12-5.4-12-12v-28.2c0-6.6,5.4-12,12-12 h10.6c6.6,0,12,5.4,12,12v28.2C219.8,183.1,214.4,188.5,207.8,188.5z"/>
  <rect x="137.5" y="236.2" fill="#FFFFFF" stroke="#000000" stroke-miterlimit="10" width="33.8" height="42"/>
  <ellipse fill="#FFFFFF" stroke="#000000" stroke-miterlimit="10" cx="167.2" cy="259.4" rx="1.9" ry="2.3"/>
</svg>

