<?xml version="1.0" encoding="utf-8"?>
<!-- Generator: Adobe Illustrator 18.1.1, SVG Export Plug-In . SVG Version: 6.00 Build 0)  -->
<svg version="1.1" xmlns="http://www.w3.org/2000/svg" xmlns:xlink="http://www.w3.org/1999/xlink" x="0px" y="0px"
	 viewBox="0 0 200 200" enable-background="new 0 0 200 200" xml:space="preserve">
<g id="Layer_2_1_" display="none">
	<g id="_x30_kaoOo.tif" display="inline">
		
			<image overflow="visible" width="702" height="420" id="Layer_0_2_" xlink:href="A442E56E4856C07F.png"  transform="matrix(0.4369 0 0 0.4369 -141.3929 7.5)">
		</image>
	</g>
</g>
<g id="Layer_1">
	<g id="Layer_1_1_">
		<g id="_x31_vukqW.tif" display="none">
			
				<image display="inline" overflow="visible" enable-background="new    " width="184" height="258" id="Layer_0_1_" xlink:href="A442E56E4856C07D.png"  transform="matrix(0.7065 0 0 0.7088 35 8.5714)">
			</image>
		</g>
		<polyline fill="none" stroke="#0075B7" stroke-width="10" stroke-miterlimit="10" points="44.8,58.8 152.5,58.8 152.5,68.2 
			47,68.2 47,78.2 151,78.2 151,87 49,87 49,95.8 150.5,95.8 150.5,104.8 50.8,104.8 50.8,113.2 147.8,113.2 147.8,122.5 
			50.5,122.5 50.5,131 145.8,131 145.8,138.5 54,138.5 54,145.8 145,145.8 145,153.8 55.5,153.8 55.5,161.5 144.2,161.5 144.2,170 
			55.2,170 79,172.8 123.5,172.8 122.5,177.5 83,177.5 		"/>
		<path fill="#FFFFFF" stroke="#000000" stroke-miterlimit="10" d="M35,44.3l11.5,132l53.4,15.1l53.1-15.1l11.5-131.5L35,44.3z
			 M142.6,168.3L100,179.7l-44.7-11.5L46.9,55.3l52.7-0.5l0,0h0.1h0.1l0,0l52.7,0.7L142.6,168.3z"/>
	</g>
	<polygon fill="none" stroke="#000000" stroke-miterlimit="10" points="59.3,69.7 140.7,69.7 133.5,152.5 100.2,162 66.7,152.2 
		64.5,127 80.7,127 81.9,139.6 100,144.8 118.2,139.8 120,119 82.3,119 80.5,102.3 121.7,102.3 122.9,86.2 60.5,86.2 	"/>
</g>
</svg>
